<mxfile host="app.diagrams.net" agent="Mozilla/5.0 (Windows NT 10.0; Win64; x64; rv:137.0) Gecko/20100101 Firefox/137.0" version="26.2.9">
  <diagram name="Page-1" id="VnxYheXJoZ_m70JOEvcD">
    <mxGraphModel dx="862" dy="611" grid="1" gridSize="10" guides="1" tooltips="1" connect="1" arrows="1" fold="1" page="1" pageScale="1" pageWidth="1100" pageHeight="850" math="0" shadow="0">
      <root>
        <mxCell id="0" />
        <mxCell id="1" parent="0" />
        <mxCell id="WCerNrLfCpVZ8D0wI2oe-10" value="" style="pointerEvents=1;verticalLabelPosition=bottom;shadow=0;dashed=0;align=center;html=1;verticalAlign=top;shape=mxgraph.electrical.miscellaneous.fuse_1;rotation=-90;" parent="1" vertex="1">
          <mxGeometry x="180" y="110" width="70" height="10" as="geometry" />
        </mxCell>
        <mxCell id="WCerNrLfCpVZ8D0wI2oe-11" value="" style="pointerEvents=1;verticalLabelPosition=bottom;shadow=0;dashed=0;align=center;html=1;verticalAlign=top;shape=mxgraph.electrical.electro-mechanical.relay_contacts;rotation=-90;" parent="1" vertex="1">
          <mxGeometry x="200" y="230" width="30" height="24" as="geometry" />
        </mxCell>
        <mxCell id="WCerNrLfCpVZ8D0wI2oe-17" value="" style="group" parent="1" vertex="1" connectable="0">
          <mxGeometry x="70" y="320" width="120" height="60" as="geometry" />
        </mxCell>
        <mxCell id="WCerNrLfCpVZ8D0wI2oe-15" value="" style="rounded=0;whiteSpace=wrap;html=1;" parent="WCerNrLfCpVZ8D0wI2oe-17" vertex="1">
          <mxGeometry width="120" height="60" as="geometry" />
        </mxCell>
        <mxCell id="WCerNrLfCpVZ8D0wI2oe-16" value="Raspberry Pi" style="text;html=1;align=center;verticalAlign=middle;whiteSpace=wrap;rounded=0;" parent="WCerNrLfCpVZ8D0wI2oe-17" vertex="1">
          <mxGeometry x="30" y="15" width="60" height="30" as="geometry" />
        </mxCell>
        <mxCell id="WCerNrLfCpVZ8D0wI2oe-28" value="" style="endArrow=none;html=1;rounded=0;entryX=0;entryY=0.25;entryDx=0;entryDy=0;exitX=1;exitY=0.5;exitDx=0;exitDy=0;exitPerimeter=0;edgeStyle=orthogonalEdgeStyle;fillColor=#e51400;strokeColor=#B20000;" parent="1" source="WCerNrLfCpVZ8D0wI2oe-10" target="WCerNrLfCpVZ8D0wI2oe-4" edge="1">
          <mxGeometry width="50" height="50" relative="1" as="geometry">
            <mxPoint x="360" y="280" as="sourcePoint" />
            <mxPoint x="410" y="230" as="targetPoint" />
          </mxGeometry>
        </mxCell>
        <mxCell id="WCerNrLfCpVZ8D0wI2oe-29" value="" style="endArrow=none;html=1;rounded=0;entryX=0;entryY=0.5;entryDx=0;entryDy=0;entryPerimeter=0;exitX=0;exitY=0.25;exitDx=0;exitDy=0;edgeStyle=orthogonalEdgeStyle;fillColor=#e51400;strokeColor=#B20000;" parent="1" source="WCerNrLfCpVZ8D0wI2oe-1" target="WCerNrLfCpVZ8D0wI2oe-10" edge="1">
          <mxGeometry width="50" height="50" relative="1" as="geometry">
            <mxPoint x="360" y="280" as="sourcePoint" />
            <mxPoint x="410" y="230" as="targetPoint" />
          </mxGeometry>
        </mxCell>
        <mxCell id="WCerNrLfCpVZ8D0wI2oe-30" value="" style="endArrow=none;html=1;rounded=0;entryX=0;entryY=0.75;entryDx=0;entryDy=0;exitX=1;exitY=0.5;exitDx=0;exitDy=0;exitPerimeter=0;edgeStyle=orthogonalEdgeStyle;fillColor=#e51400;strokeColor=#B20000;" parent="1" source="WCerNrLfCpVZ8D0wI2oe-11" target="WCerNrLfCpVZ8D0wI2oe-1" edge="1">
          <mxGeometry width="50" height="50" relative="1" as="geometry">
            <mxPoint x="360" y="280" as="sourcePoint" />
            <mxPoint x="410" y="230" as="targetPoint" />
          </mxGeometry>
        </mxCell>
        <mxCell id="WCerNrLfCpVZ8D0wI2oe-31" value="" style="endArrow=none;html=1;rounded=0;entryX=0;entryY=0.5;entryDx=0;entryDy=0;entryPerimeter=0;exitX=0;exitY=0.25;exitDx=0;exitDy=0;edgeStyle=orthogonalEdgeStyle;fillColor=#e51400;strokeColor=#B20000;" parent="1" source="WCerNrLfCpVZ8D0wI2oe-2" target="WCerNrLfCpVZ8D0wI2oe-11" edge="1">
          <mxGeometry width="50" height="50" relative="1" as="geometry">
            <mxPoint x="360" y="280" as="sourcePoint" />
            <mxPoint x="410" y="230" as="targetPoint" />
          </mxGeometry>
        </mxCell>
        <mxCell id="gGhqwy_2WW6z7Ml-vN-h-2" value="" style="rounded=0;whiteSpace=wrap;html=1;" parent="1" vertex="1">
          <mxGeometry x="437.5" y="10" width="120" height="60" as="geometry" />
        </mxCell>
        <mxCell id="WCerNrLfCpVZ8D0wI2oe-6" value="" style="group" parent="1" vertex="1" connectable="0">
          <mxGeometry x="240" y="40" width="120" height="60" as="geometry" />
        </mxCell>
        <mxCell id="WCerNrLfCpVZ8D0wI2oe-4" value="" style="rounded=0;whiteSpace=wrap;html=1;" parent="WCerNrLfCpVZ8D0wI2oe-6" vertex="1">
          <mxGeometry width="120" height="60" as="geometry" />
        </mxCell>
        <mxCell id="WCerNrLfCpVZ8D0wI2oe-5" value="12v Battery" style="text;html=1;align=center;verticalAlign=middle;whiteSpace=wrap;rounded=0;" parent="WCerNrLfCpVZ8D0wI2oe-6" vertex="1">
          <mxGeometry x="10" y="15" width="100" height="30" as="geometry" />
        </mxCell>
        <mxCell id="gGhqwy_2WW6z7Ml-vN-h-5" value="" style="group" parent="1" vertex="1" connectable="0">
          <mxGeometry x="100" y="150" width="80" height="60" as="geometry" />
        </mxCell>
        <mxCell id="gGhqwy_2WW6z7Ml-vN-h-3" value="" style="rounded=0;whiteSpace=wrap;html=1;" parent="gGhqwy_2WW6z7Ml-vN-h-5" vertex="1">
          <mxGeometry width="80" height="60" as="geometry" />
        </mxCell>
        <mxCell id="gGhqwy_2WW6z7Ml-vN-h-4" value="Key SW" style="text;html=1;align=center;verticalAlign=middle;whiteSpace=wrap;rounded=0;" parent="gGhqwy_2WW6z7Ml-vN-h-5" vertex="1">
          <mxGeometry x="10" y="13.75" width="60" height="32.5" as="geometry" />
        </mxCell>
        <mxCell id="gGhqwy_2WW6z7Ml-vN-h-7" value="DC-DC Converter" style="text;html=1;align=center;verticalAlign=middle;whiteSpace=wrap;rounded=0;" parent="1" vertex="1">
          <mxGeometry x="452.5" y="25" width="90" height="30" as="geometry" />
        </mxCell>
        <mxCell id="gGhqwy_2WW6z7Ml-vN-h-9" value="" style="endArrow=none;html=1;rounded=0;entryX=0;entryY=0.25;entryDx=0;entryDy=0;exitX=1;exitY=0.25;exitDx=0;exitDy=0;edgeStyle=orthogonalEdgeStyle;fillColor=#e51400;strokeColor=#B20000;" parent="1" source="WCerNrLfCpVZ8D0wI2oe-4" target="gGhqwy_2WW6z7Ml-vN-h-2" edge="1">
          <mxGeometry width="50" height="50" relative="1" as="geometry">
            <mxPoint x="530" y="240" as="sourcePoint" />
            <mxPoint x="580" y="190" as="targetPoint" />
          </mxGeometry>
        </mxCell>
        <mxCell id="gGhqwy_2WW6z7Ml-vN-h-15" value="" style="endArrow=none;html=1;rounded=0;entryX=0;entryY=0.75;entryDx=0;entryDy=0;exitX=1;exitY=0.75;exitDx=0;exitDy=0;edgeStyle=orthogonalEdgeStyle;" parent="1" source="WCerNrLfCpVZ8D0wI2oe-4" target="gGhqwy_2WW6z7Ml-vN-h-2" edge="1">
          <mxGeometry width="50" height="50" relative="1" as="geometry">
            <mxPoint x="530" y="240" as="sourcePoint" />
            <mxPoint x="580" y="190" as="targetPoint" />
            <Array as="points">
              <mxPoint x="410" y="85" />
              <mxPoint x="410" y="50" />
              <mxPoint x="440" y="50" />
              <mxPoint x="440" y="55" />
            </Array>
          </mxGeometry>
        </mxCell>
        <mxCell id="gGhqwy_2WW6z7Ml-vN-h-18" value="" style="endArrow=none;html=1;rounded=0;entryX=1;entryY=0.75;entryDx=0;entryDy=0;exitX=0;exitY=0.25;exitDx=0;exitDy=0;edgeStyle=orthogonalEdgeStyle;fillColor=#e51400;strokeColor=#B20000;" parent="1" source="gGhqwy_2WW6z7Ml-vN-h-16" target="WCerNrLfCpVZ8D0wI2oe-1" edge="1">
          <mxGeometry width="50" height="50" relative="1" as="geometry">
            <mxPoint x="530" y="240" as="sourcePoint" />
            <mxPoint x="390" y="230" as="targetPoint" />
          </mxGeometry>
        </mxCell>
        <mxCell id="gGhqwy_2WW6z7Ml-vN-h-19" value="" style="group" parent="1" vertex="1" connectable="0">
          <mxGeometry x="240" y="150" width="120" height="60" as="geometry" />
        </mxCell>
        <mxCell id="WCerNrLfCpVZ8D0wI2oe-1" value="" style="rounded=0;whiteSpace=wrap;html=1;" parent="gGhqwy_2WW6z7Ml-vN-h-19" vertex="1">
          <mxGeometry width="120" height="60" as="geometry" />
        </mxCell>
        <mxCell id="WCerNrLfCpVZ8D0wI2oe-3" value="12v Fuse Block On" style="text;html=1;align=center;verticalAlign=middle;whiteSpace=wrap;rounded=0;" parent="gGhqwy_2WW6z7Ml-vN-h-19" vertex="1">
          <mxGeometry x="12.5" y="15" width="95" height="30" as="geometry" />
        </mxCell>
        <mxCell id="gGhqwy_2WW6z7Ml-vN-h-20" value="" style="group" parent="1" vertex="1" connectable="0">
          <mxGeometry x="490" y="230" width="120" height="60" as="geometry" />
        </mxCell>
        <mxCell id="gGhqwy_2WW6z7Ml-vN-h-16" value="" style="rounded=0;whiteSpace=wrap;html=1;" parent="gGhqwy_2WW6z7Ml-vN-h-20" vertex="1">
          <mxGeometry width="120" height="60" as="geometry" />
        </mxCell>
        <mxCell id="gGhqwy_2WW6z7Ml-vN-h-17" value="MCU" style="text;html=1;align=center;verticalAlign=middle;whiteSpace=wrap;rounded=0;" parent="gGhqwy_2WW6z7Ml-vN-h-20" vertex="1">
          <mxGeometry x="30" y="15" width="60" height="30" as="geometry" />
        </mxCell>
        <mxCell id="gGhqwy_2WW6z7Ml-vN-h-22" value="" style="endArrow=none;html=1;rounded=0;entryX=-0.033;entryY=0.867;entryDx=0;entryDy=0;entryPerimeter=0;exitX=1;exitY=0;exitDx=0;exitDy=0;edgeStyle=orthogonalEdgeStyle;fillColor=#e51400;strokeColor=#B20000;" parent="1" source="WCerNrLfCpVZ8D0wI2oe-19" target="gGhqwy_2WW6z7Ml-vN-h-16" edge="1">
          <mxGeometry width="50" height="50" relative="1" as="geometry">
            <mxPoint x="530" y="240" as="sourcePoint" />
            <mxPoint x="580" y="190" as="targetPoint" />
          </mxGeometry>
        </mxCell>
        <mxCell id="gGhqwy_2WW6z7Ml-vN-h-23" value="" style="group" parent="1" vertex="1" connectable="0">
          <mxGeometry x="240" y="270" width="120" height="60" as="geometry" />
        </mxCell>
        <mxCell id="WCerNrLfCpVZ8D0wI2oe-2" value="" style="rounded=0;whiteSpace=wrap;html=1;" parent="gGhqwy_2WW6z7Ml-vN-h-23" vertex="1">
          <mxGeometry width="120" height="60" as="geometry" />
        </mxCell>
        <mxCell id="WCerNrLfCpVZ8D0wI2oe-19" value="12v Fuse Block Switched" style="text;html=1;align=center;verticalAlign=middle;whiteSpace=wrap;rounded=0;" parent="gGhqwy_2WW6z7Ml-vN-h-23" vertex="1">
          <mxGeometry x="15" y="15" width="90" height="30" as="geometry" />
        </mxCell>
        <mxCell id="gGhqwy_2WW6z7Ml-vN-h-27" value="" style="endArrow=none;html=1;rounded=0;entryX=0;entryY=0.5;entryDx=0;entryDy=0;exitX=1;exitY=0.75;exitDx=0;exitDy=0;edgeStyle=orthogonalEdgeStyle;fillColor=#e51400;strokeColor=#B20000;" parent="1" source="WCerNrLfCpVZ8D0wI2oe-1" target="gGhqwy_2WW6z7Ml-vN-h-16" edge="1">
          <mxGeometry width="50" height="50" relative="1" as="geometry">
            <mxPoint x="400" y="250" as="sourcePoint" />
            <mxPoint x="580" y="190" as="targetPoint" />
          </mxGeometry>
        </mxCell>
        <mxCell id="gGhqwy_2WW6z7Ml-vN-h-30" value="" style="rounded=0;whiteSpace=wrap;html=1;" parent="1" vertex="1">
          <mxGeometry x="490" y="320" width="60" height="50" as="geometry" />
        </mxCell>
        <mxCell id="gGhqwy_2WW6z7Ml-vN-h-31" value="HV Bat" style="text;html=1;align=center;verticalAlign=middle;whiteSpace=wrap;rounded=0;" parent="1" vertex="1">
          <mxGeometry x="490" y="330" width="60" height="30" as="geometry" />
        </mxCell>
        <mxCell id="gGhqwy_2WW6z7Ml-vN-h-32" value="" style="rounded=0;whiteSpace=wrap;html=1;" parent="1" vertex="1">
          <mxGeometry x="560" y="320" width="60" height="50" as="geometry" />
        </mxCell>
        <mxCell id="gGhqwy_2WW6z7Ml-vN-h-33" value="CurSen" style="text;html=1;align=center;verticalAlign=middle;whiteSpace=wrap;rounded=0;" parent="1" vertex="1">
          <mxGeometry x="560" y="330" width="60" height="30" as="geometry" />
        </mxCell>
        <mxCell id="gGhqwy_2WW6z7Ml-vN-h-36" value="" style="endArrow=none;html=1;rounded=0;exitX=0.25;exitY=1;exitDx=0;exitDy=0;entryX=0.5;entryY=0;entryDx=0;entryDy=0;fillColor=#e51400;strokeColor=#B20000;" parent="1" source="gGhqwy_2WW6z7Ml-vN-h-16" target="gGhqwy_2WW6z7Ml-vN-h-30" edge="1">
          <mxGeometry width="50" height="50" relative="1" as="geometry">
            <mxPoint x="580" y="240" as="sourcePoint" />
            <mxPoint x="630" y="190" as="targetPoint" />
          </mxGeometry>
        </mxCell>
        <mxCell id="gGhqwy_2WW6z7Ml-vN-h-37" value="" style="endArrow=none;html=1;rounded=0;exitX=0.75;exitY=1;exitDx=0;exitDy=0;entryX=0.5;entryY=0;entryDx=0;entryDy=0;fillColor=#e51400;strokeColor=#B20000;" parent="1" source="gGhqwy_2WW6z7Ml-vN-h-16" target="gGhqwy_2WW6z7Ml-vN-h-32" edge="1">
          <mxGeometry width="50" height="50" relative="1" as="geometry">
            <mxPoint x="580" y="240" as="sourcePoint" />
            <mxPoint x="630" y="190" as="targetPoint" />
          </mxGeometry>
        </mxCell>
        <mxCell id="gGhqwy_2WW6z7Ml-vN-h-38" value="" style="endArrow=none;dashed=1;html=1;dashPattern=1 3;strokeWidth=2;rounded=0;entryX=0.5;entryY=1;entryDx=0;entryDy=0;exitX=0.5;exitY=0;exitDx=0;exitDy=0;edgeStyle=orthogonalEdgeStyle;fillColor=#e51400;strokeColor=#B20000;" parent="1" source="gGhqwy_2WW6z7Ml-vN-h-16" target="gGhqwy_2WW6z7Ml-vN-h-2" edge="1">
          <mxGeometry width="50" height="50" relative="1" as="geometry">
            <mxPoint x="530" y="240" as="sourcePoint" />
            <mxPoint x="580" y="190" as="targetPoint" />
          </mxGeometry>
        </mxCell>
        <mxCell id="gGhqwy_2WW6z7Ml-vN-h-39" value="" style="rounded=0;whiteSpace=wrap;html=1;" parent="1" vertex="1">
          <mxGeometry x="240" y="370" width="120" height="60" as="geometry" />
        </mxCell>
        <mxCell id="gGhqwy_2WW6z7Ml-vN-h-40" value="VCU" style="text;html=1;align=center;verticalAlign=middle;whiteSpace=wrap;rounded=0;" parent="1" vertex="1">
          <mxGeometry x="270" y="385" width="60" height="30" as="geometry" />
        </mxCell>
        <mxCell id="gGhqwy_2WW6z7Ml-vN-h-41" value="" style="endArrow=none;html=1;rounded=0;entryX=0.25;entryY=1;entryDx=0;entryDy=0;exitX=0.25;exitY=0;exitDx=0;exitDy=0;fillColor=#e51400;strokeColor=#B20000;" parent="1" source="gGhqwy_2WW6z7Ml-vN-h-39" target="WCerNrLfCpVZ8D0wI2oe-2" edge="1">
          <mxGeometry width="50" height="50" relative="1" as="geometry">
            <mxPoint x="530" y="240" as="sourcePoint" />
            <mxPoint x="580" y="190" as="targetPoint" />
          </mxGeometry>
        </mxCell>
        <mxCell id="gGhqwy_2WW6z7Ml-vN-h-42" value="" style="endArrow=none;html=1;rounded=0;entryX=0.75;entryY=1;entryDx=0;entryDy=0;exitX=0.75;exitY=0;exitDx=0;exitDy=0;fillColor=#e51400;strokeColor=#B20000;" parent="1" source="gGhqwy_2WW6z7Ml-vN-h-39" target="WCerNrLfCpVZ8D0wI2oe-2" edge="1">
          <mxGeometry width="50" height="50" relative="1" as="geometry">
            <mxPoint x="530" y="240" as="sourcePoint" />
            <mxPoint x="580" y="190" as="targetPoint" />
          </mxGeometry>
        </mxCell>
        <mxCell id="gGhqwy_2WW6z7Ml-vN-h-45" value="" style="endArrow=none;html=1;rounded=0;entryX=0;entryY=0.5;entryDx=0;entryDy=0;exitX=1;exitY=0.5;exitDx=0;exitDy=0;fillColor=#e51400;strokeColor=#B20000;" parent="1" source="WCerNrLfCpVZ8D0wI2oe-15" target="WCerNrLfCpVZ8D0wI2oe-2" edge="1">
          <mxGeometry width="50" height="50" relative="1" as="geometry">
            <mxPoint x="530" y="240" as="sourcePoint" />
            <mxPoint x="580" y="190" as="targetPoint" />
          </mxGeometry>
        </mxCell>
        <mxCell id="gGhqwy_2WW6z7Ml-vN-h-46" value="" style="group" parent="1" vertex="1" connectable="0">
          <mxGeometry x="380" y="370" width="80" height="50" as="geometry" />
        </mxCell>
        <mxCell id="gGhqwy_2WW6z7Ml-vN-h-47" value="" style="rounded=0;whiteSpace=wrap;html=1;" parent="gGhqwy_2WW6z7Ml-vN-h-46" vertex="1">
          <mxGeometry width="80" height="50" as="geometry" />
        </mxCell>
        <mxCell id="gGhqwy_2WW6z7Ml-vN-h-48" value="Brake SW" style="text;html=1;align=center;verticalAlign=middle;whiteSpace=wrap;rounded=0;" parent="gGhqwy_2WW6z7Ml-vN-h-46" vertex="1">
          <mxGeometry x="5.71" y="10" width="68.57" height="33.75" as="geometry" />
        </mxCell>
        <mxCell id="gGhqwy_2WW6z7Ml-vN-h-49" value="" style="endArrow=none;html=1;rounded=0;entryX=0;entryY=0.5;entryDx=0;entryDy=0;exitX=1;exitY=0.5;exitDx=0;exitDy=0;edgeStyle=orthogonalEdgeStyle;fillColor=#e51400;strokeColor=#B20000;" parent="1" source="gGhqwy_2WW6z7Ml-vN-h-3" target="WCerNrLfCpVZ8D0wI2oe-1" edge="1">
          <mxGeometry width="50" height="50" relative="1" as="geometry">
            <mxPoint x="530" y="240" as="sourcePoint" />
            <mxPoint x="580" y="190" as="targetPoint" />
          </mxGeometry>
        </mxCell>
        <mxCell id="gGhqwy_2WW6z7Ml-vN-h-51" value="" style="endArrow=none;html=1;rounded=0;entryX=0.5;entryY=1;entryDx=0;entryDy=0;exitX=0.367;exitY=-0.042;exitDx=0;exitDy=0;exitPerimeter=0;edgeStyle=orthogonalEdgeStyle;fillColor=#e51400;strokeColor=#B20000;" parent="1" source="WCerNrLfCpVZ8D0wI2oe-11" target="gGhqwy_2WW6z7Ml-vN-h-3" edge="1">
          <mxGeometry width="50" height="50" relative="1" as="geometry">
            <mxPoint x="530" y="240" as="sourcePoint" />
            <mxPoint x="140" y="250" as="targetPoint" />
          </mxGeometry>
        </mxCell>
        <mxCell id="mY-RVC5os6wum43sR0yX-1" value="" style="endArrow=none;dashed=1;html=1;dashPattern=1 3;strokeWidth=2;rounded=0;entryX=0.75;entryY=1;entryDx=0;entryDy=0;exitX=0.25;exitY=0;exitDx=0;exitDy=0;edgeStyle=orthogonalEdgeStyle;fillColor=#e51400;strokeColor=#B20000;" edge="1" parent="1" source="gGhqwy_2WW6z7Ml-vN-h-47" target="WCerNrLfCpVZ8D0wI2oe-1">
          <mxGeometry width="50" height="50" relative="1" as="geometry">
            <mxPoint x="500" y="340" as="sourcePoint" />
            <mxPoint x="550" y="290" as="targetPoint" />
            <Array as="points">
              <mxPoint x="400" y="240" />
              <mxPoint x="330" y="240" />
            </Array>
          </mxGeometry>
        </mxCell>
        <mxCell id="mY-RVC5os6wum43sR0yX-3" value="" style="endArrow=none;html=1;rounded=0;entryX=0.25;entryY=1;entryDx=0;entryDy=0;exitX=0.75;exitY=1;exitDx=0;exitDy=0;edgeStyle=orthogonalEdgeStyle;fillColor=#e51400;strokeColor=#B20000;" edge="1" parent="1" source="gGhqwy_2WW6z7Ml-vN-h-39" target="gGhqwy_2WW6z7Ml-vN-h-47">
          <mxGeometry width="50" height="50" relative="1" as="geometry">
            <mxPoint x="500" y="340" as="sourcePoint" />
            <mxPoint x="550" y="290" as="targetPoint" />
          </mxGeometry>
        </mxCell>
        <mxCell id="mY-RVC5os6wum43sR0yX-6" value="" style="endArrow=none;html=1;rounded=0;entryX=0.183;entryY=1.017;entryDx=0;entryDy=0;entryPerimeter=0;exitX=0.75;exitY=0;exitDx=0;exitDy=0;edgeStyle=orthogonalEdgeStyle;fillColor=#e51400;strokeColor=#B20000;" edge="1" parent="1" source="mY-RVC5os6wum43sR0yX-4" target="gGhqwy_2WW6z7Ml-vN-h-39">
          <mxGeometry width="50" height="50" relative="1" as="geometry">
            <mxPoint x="500" y="340" as="sourcePoint" />
            <mxPoint x="550" y="290" as="targetPoint" />
          </mxGeometry>
        </mxCell>
        <mxCell id="mY-RVC5os6wum43sR0yX-7" value="" style="group" vertex="1" connectable="0" parent="1">
          <mxGeometry x="120" y="490" width="120" height="60" as="geometry" />
        </mxCell>
        <mxCell id="mY-RVC5os6wum43sR0yX-4" value="" style="rounded=0;whiteSpace=wrap;html=1;" vertex="1" parent="mY-RVC5os6wum43sR0yX-7">
          <mxGeometry width="120" height="60" as="geometry" />
        </mxCell>
        <mxCell id="mY-RVC5os6wum43sR0yX-5" value="&lt;div&gt;Tail Lights&lt;/div&gt;" style="text;html=1;align=center;verticalAlign=middle;whiteSpace=wrap;rounded=0;" vertex="1" parent="mY-RVC5os6wum43sR0yX-7">
          <mxGeometry x="30" y="15" width="60" height="30" as="geometry" />
        </mxCell>
        <mxCell id="mY-RVC5os6wum43sR0yX-9" value="" style="rounded=0;whiteSpace=wrap;html=1;" vertex="1" parent="1">
          <mxGeometry x="50" y="402" width="120" height="60" as="geometry" />
        </mxCell>
        <mxCell id="mY-RVC5os6wum43sR0yX-10" value="Throttle" style="text;html=1;align=center;verticalAlign=middle;whiteSpace=wrap;rounded=0;" vertex="1" parent="1">
          <mxGeometry x="80" y="417" width="60" height="30" as="geometry" />
        </mxCell>
        <mxCell id="mY-RVC5os6wum43sR0yX-11" value="" style="endArrow=none;html=1;rounded=0;entryX=0;entryY=0.75;entryDx=0;entryDy=0;exitX=1;exitY=0.25;exitDx=0;exitDy=0;fillColor=#e51400;strokeColor=#B20000;" edge="1" parent="1" source="mY-RVC5os6wum43sR0yX-9" target="gGhqwy_2WW6z7Ml-vN-h-39">
          <mxGeometry width="50" height="50" relative="1" as="geometry">
            <mxPoint x="500" y="340" as="sourcePoint" />
            <mxPoint x="550" y="290" as="targetPoint" />
          </mxGeometry>
        </mxCell>
        <mxCell id="mY-RVC5os6wum43sR0yX-14" value="" style="group" vertex="1" connectable="0" parent="1">
          <mxGeometry x="260" y="490" width="90" height="50" as="geometry" />
        </mxCell>
        <mxCell id="mY-RVC5os6wum43sR0yX-12" value="" style="rounded=0;whiteSpace=wrap;html=1;" vertex="1" parent="mY-RVC5os6wum43sR0yX-14">
          <mxGeometry width="90" height="50" as="geometry" />
        </mxCell>
        <mxCell id="mY-RVC5os6wum43sR0yX-13" value="Contactor" style="text;html=1;align=center;verticalAlign=middle;whiteSpace=wrap;rounded=0;" vertex="1" parent="mY-RVC5os6wum43sR0yX-14">
          <mxGeometry x="15" y="10" width="60" height="30" as="geometry" />
        </mxCell>
        <mxCell id="mY-RVC5os6wum43sR0yX-15" value="" style="endArrow=none;html=1;rounded=0;entryX=0.25;entryY=1;entryDx=0;entryDy=0;exitX=0.5;exitY=0;exitDx=0;exitDy=0;edgeStyle=orthogonalEdgeStyle;" edge="1" parent="1" source="mY-RVC5os6wum43sR0yX-12" target="gGhqwy_2WW6z7Ml-vN-h-39">
          <mxGeometry width="50" height="50" relative="1" as="geometry">
            <mxPoint x="420" y="350" as="sourcePoint" />
            <mxPoint x="470" y="300" as="targetPoint" />
          </mxGeometry>
        </mxCell>
        <mxCell id="mY-RVC5os6wum43sR0yX-17" value="" style="rounded=0;whiteSpace=wrap;html=1;" vertex="1" parent="1">
          <mxGeometry x="360" y="462" width="70" height="48" as="geometry" />
        </mxCell>
        <mxCell id="mY-RVC5os6wum43sR0yX-18" value="&lt;div&gt;Precharge&lt;/div&gt;" style="text;html=1;align=center;verticalAlign=middle;whiteSpace=wrap;rounded=0;" vertex="1" parent="1">
          <mxGeometry x="365" y="471" width="60" height="30" as="geometry" />
        </mxCell>
        <mxCell id="mY-RVC5os6wum43sR0yX-20" value="" style="endArrow=none;html=1;rounded=0;exitX=0.5;exitY=1;exitDx=0;exitDy=0;entryX=0;entryY=0;entryDx=0;entryDy=0;edgeStyle=orthogonalEdgeStyle;fillColor=#e51400;strokeColor=#B20000;" edge="1" parent="1" source="gGhqwy_2WW6z7Ml-vN-h-39" target="mY-RVC5os6wum43sR0yX-17">
          <mxGeometry width="50" height="50" relative="1" as="geometry">
            <mxPoint x="420" y="350" as="sourcePoint" />
            <mxPoint x="470" y="300" as="targetPoint" />
            <Array as="points">
              <mxPoint x="300" y="450" />
              <mxPoint x="360" y="450" />
            </Array>
          </mxGeometry>
        </mxCell>
      </root>
    </mxGraphModel>
  </diagram>
</mxfile>
